<svg width="256" height="256" viewBox="0 0 256 256" fill="none" xmlns="http://www.w3.org/2000/svg">
<g clip-path="url(#clip0_7_2)">
<path d="M224.002 0H31.998C14.3579 0.0394964 0.0614809 14.3368 0 32V224C0 241.6 14.3971 256 31.998 256H224.002C241.603 256 256 241.6 256 224V32C256 14.4 241.603 0 224.002 0Z" fill="#704BD6"/>
<path d="M54.1328 120.802C58.596 118.196 154.476 62.4774 156.668 61.1863C158.86 59.9111 158.979 55.9898 156.508 54.5711C154.054 53.1604 149.391 50.4825 147.662 49.4543C145.192 48.0958 142.191 48.1321 139.755 49.55C138.528 50.2673 56.6035 97.8487 53.8698 99.4108C50.5781 101.292 46.5373 101.324 43.2696 99.4108L0 74.0181V95.6011C10.5205 101.802 36.7182 117.2 43.0623 120.826C46.8481 122.978 50.4745 122.93 54.1407 120.802" fill="white"/>
<path d="M54.1328 161.609C58.596 159.003 154.476 103.284 156.668 101.993C158.86 100.718 158.979 96.7966 156.508 95.3779C154.054 93.9672 149.391 91.2893 147.662 90.2612C145.192 88.9026 142.191 88.9389 139.755 90.3568C138.528 91.0741 56.6035 138.655 53.8698 140.218C50.5781 142.099 46.5373 142.13 43.2696 140.218L0 114.825V136.408C10.5205 142.609 36.7182 158.007 43.0623 161.633C46.8481 163.785 50.4745 163.737 54.1407 161.609" fill="white"/>
<path d="M54.1328 204.967C58.596 202.36 154.476 146.642 156.668 145.35C158.86 144.075 158.979 140.154 156.508 138.735C154.054 137.324 149.391 134.647 147.662 133.618C145.192 132.26 142.191 132.296 139.755 133.714C138.528 134.431 56.6035 182.013 53.8698 183.575C50.5781 185.456 46.5373 185.488 43.2696 183.575L0 158.182V179.765C10.5205 185.966 36.7182 201.364 43.0623 204.99C46.8481 207.142 50.4745 207.095 54.1407 204.967" fill="white"/>
</g>
<defs>
<clipPath id="clip0_7_2">
<rect width="256" height="256" fill="white"/>
</clipPath>
</defs>
</svg>
